<svg width="32" height="32" viewBox="0 0 32 32" fill="none" xmlns="http://www.w3.org/2000/svg">
<rect width="32" height="32" rx="8" fill="#FF7700"/>
<path d="M25 15.25L25 24.25C25 24.4489 24.921 24.6397 24.7803 24.7803C24.6397 24.921 24.4489 25 24.25 25H19C18.8011 25 18.6103 24.921 18.4697 24.7803C18.329 24.6397 18.25 24.4489 18.25 24.25L18.25 19.375C18.25 19.2755 18.2105 19.1802 18.1402 19.1098C18.0698 19.0395 17.9745 19 17.875 19H14.125C14.0255 19 13.9302 19.0395 13.8598 19.1098C13.7895 19.1802 13.75 19.2755 13.75 19.375L13.75 24.25C13.75 24.4489 13.671 24.6397 13.5303 24.7803C13.3897 24.921 13.1989 25 13 25H7.75C7.55109 25 7.36032 24.921 7.21967 24.7803C7.07902 24.6397 7 24.4489 7 24.25L7 15.25C7.00018 14.8522 7.15834 14.4708 7.43969 14.1897L14.9397 6.68969C15.221 6.40859 15.6023 6.25069 16 6.25069C16.3977 6.25069 16.779 6.40859 17.0603 6.68969L24.5603 14.1897C24.8417 14.4708 24.9998 14.8522 25 15.25Z" fill="white"/>
</svg>
